<?xml version="1.0" encoding="UTF-8" standalone="no"?>
<!DOCTYPE svg PUBLIC "-//W3C//DTD SVG 1.1//EN" "http://www.w3.org/Graphics/SVG/1.1/DTD/svg11.dtd">
<svg width="100%" height="100%" viewBox="0 0 131 142" version="1.1" xmlns="http://www.w3.org/2000/svg" xmlns:xlink="http://www.w3.org/1999/xlink" xml:space="preserve" xmlns:serif="http://www.serif.com/" style="fill-rule:evenodd;clip-rule:evenodd;stroke-linecap:round;stroke-linejoin:round;stroke-miterlimit:1.5;">
    <g transform="matrix(1,0,0,1,-1317.33,-363.455)">
        <g id="Layer1">
            <g>
                <g transform="matrix(4.0316,0,0,4.0316,-2383.89,-4344.37)">
                    <g>
                        <path d="M942.902,1194.83L925.552,1194.83L922.952,1201.48C922.852,1201.75 922.668,1202.02 922.402,1202.31C922.135,1202.59 921.668,1202.73 921.002,1202.73L919.152,1202.73C918.852,1202.73 918.593,1202.62 918.377,1202.41C918.16,1202.19 918.052,1201.93 918.052,1201.63C918.052,1201.46 918.118,1201.23 918.252,1200.93L930.502,1169.38C930.668,1169.01 930.918,1168.65 931.252,1168.28C931.585,1167.91 932.085,1167.73 932.752,1167.73L935.752,1167.73C936.418,1167.73 936.918,1167.91 937.252,1168.28C937.585,1168.65 937.835,1169.01 938.002,1169.38L950.202,1200.93C950.335,1201.23 950.402,1201.46 950.402,1201.63C950.402,1201.93 950.293,1202.19 950.077,1202.41C949.86,1202.62 949.602,1202.73 949.302,1202.73L947.452,1202.73C946.785,1202.73 946.318,1202.59 946.052,1202.31C945.785,1202.02 945.602,1201.75 945.502,1201.48L942.902,1194.83ZM927.302,1190.33L941.152,1190.33L934.252,1172.48L927.302,1190.33Z" style="fill:rgb(233,156,8);fill-rule:nonzero;"/>
                    </g>
                </g>
                <g transform="matrix(0.98121,0,0,1,827.279,-770.836)">
                    <path d="M1014.7,1249.95C1014.72,1249.91 1014.73,1249.87 1014.75,1249.82C1015.53,1247.83 1016.38,1245.87 1017.38,1244.09C1018.33,1242.4 1019.44,1240.92 1020.57,1239.48C1024.5,1234.49 1025.25,1233.64 1029.28,1227.14C1029.28,1227.14 1031.5,1232.81 1043.8,1249.82C1043.94,1249.86 1071.65,1272.85 1072.66,1290.21C1072.66,1290.21 1130.23,1266.83 1179.62,1307.65C1228.88,1294.22 1279.78,1289.78 1329.65,1298.25C1344.19,1300.72 1357.28,1303.67 1371.55,1308.49C1376.5,1310.16 1381.14,1314.26 1386.35,1314.3C1392.02,1314.36 1397.24,1310.39 1402.66,1308.76C1412.3,1305.84 1424.79,1303.52 1434.6,1302.47C1476.05,1298.03 1518.5,1305.9 1558.07,1324.21L1559.56,1326.07C1550.77,1326.07 1541.99,1326.09 1533.2,1326.1C1509.08,1326.14 1484.97,1326.2 1460.85,1326.26L1395.04,1326.44C1362.14,1326.53 1329.24,1326.61 1296.34,1326.64C1208.6,1326.73 1120.86,1326.89 1033.12,1326.62C1032.72,1326.61 1032.36,1326.3 1032.09,1325.86C1031.82,1326.3 1031.45,1326.61 1031.06,1326.62C943.317,1326.89 855.578,1326.73 767.838,1326.64C680.099,1326.55 592.36,1326.16 504.62,1326.07L506.109,1324.21C545.68,1305.9 570.753,1295.9 612.201,1300.34C622.017,1301.39 634.5,1303.71 644.143,1306.62C649.565,1308.26 654.788,1312.23 660.451,1312.17C665.66,1312.12 670.308,1308.03 675.254,1306.36C689.522,1301.54 702.615,1298.59 717.152,1296.12C767.021,1287.65 817.923,1292.09 867.18,1305.52C916.578,1264.7 956.773,1290.21 956.773,1290.21C957.779,1272.85 985.789,1249.86 985.937,1249.82C998.232,1232.81 1000.17,1227.14 1000.17,1227.14C1004.2,1233.64 1005.62,1236.67 1008.84,1239.48C1010.22,1240.69 1011.08,1242.4 1012.03,1244.09C1013.03,1245.87 1013.87,1247.83 1014.66,1249.82C1014.68,1249.87 1014.69,1249.91 1014.7,1249.95Z" style="fill:rgb(26,134,147);stroke:rgb(26,134,147);stroke-width:4.21px;"/>
                </g>
            </g>
        </g>
    </g>
</svg>
